<svg xmlns="http://www.w3.org/2000/svg" xmlns:xlink="http://www.w3.org/1999/xlink" contentStyleType="text/css" height="595px" preserveAspectRatio="none" style="width:410px;height:595px;background:#FFFFFF;" version="1.1" viewBox="0 0 410 595" width="410px" zoomAndPan="magnify"><defs/><g><ellipse cx="198.0806" cy="20" fill="#222222" rx="10" ry="10" style="stroke:#222222;stroke-width:1.0;"/><rect fill="#F1F1F1" height="37.0918" rx="12.5" ry="12.5" style="stroke:#181818;stroke-width:0.5;" width="96.7051" x="149.728" y="94"/><text fill="#000000" font-family="sans-serif" font-size="12" lengthAdjust="spacing" textLength="76.7051" x="159.728" y="118.4551">pull messages</text><rect fill="#F1F1F1" height="37.0918" rx="12.5" ry="12.5" style="stroke:#181818;stroke-width:0.5;" width="106.0391" x="145.061" y="151.0918"/><text fill="#000000" font-family="sans-serif" font-size="12" lengthAdjust="spacing" textLength="86.0391" x="155.061" y="175.5469">increase `count`</text><polygon fill="#F1F1F1" points="198.0806,258.0173,198.0806,258.0173,210.0806,270.0173,198.0806,282.0173,198.0806,282.0173,186.0806,270.0173,198.0806,258.0173" style="stroke:#181818;stroke-width:0.5;"/><text fill="#000000" font-family="sans-serif" font-size="11" lengthAdjust="spacing" textLength="176.0806" x="10" y="267.6003">ClaimOccurrenceRate % count == 0</text><text fill="#000000" font-family="sans-serif" font-size="11" lengthAdjust="spacing" textLength="146.7222" x="210.0806" y="267.6003">messages &lt;= ClaimSensitivity</text><polygon fill="#F1F1F1" points="198.0806,298.0173,210.0806,310.0173,198.0806,322.0173,186.0806,310.0173,198.0806,298.0173" style="stroke:#181818;stroke-width:0.5;"/><rect fill="#F1F1F1" height="37.0918" rx="12.5" ry="12.5" style="stroke:#181818;stroke-width:0.5;" width="106.0273" x="145.0669" y="346.0632"/><text fill="#000000" font-family="sans-serif" font-size="12" lengthAdjust="spacing" textLength="86.0273" x="155.0669" y="370.5183">claim messages</text><polygon fill="#F1F1F1" points="53.1658,208.1836,342.9954,208.1836,354.9954,220.1836,342.9954,232.1836,53.1658,232.1836,41.1658,220.1836,53.1658,208.1836" style="stroke:#181818;stroke-width:0.5;"/><text fill="#000000" font-family="sans-serif" font-size="11" lengthAdjust="spacing" textLength="17.1177" x="202.0806" y="245.4341">yes</text><text fill="#000000" font-family="sans-serif" font-size="11" lengthAdjust="spacing" textLength="289.8296" x="53.1658" y="225.6003">should run CLAIM command pulling all pending messages?</text><text fill="#000000" font-family="sans-serif" font-size="11" lengthAdjust="spacing" textLength="12.2354" x="354.9954" y="217.7666">no</text><polygon fill="#F1F1F1" points="198.0806,403.155,210.0806,415.155,198.0806,427.155,186.0806,415.155,198.0806,403.155" style="stroke:#181818;stroke-width:0.5;"/><rect fill="#F1F1F1" height="37.0918" rx="12.5" ry="12.5" style="stroke:#181818;stroke-width:0.5;" width="120.043" x="138.0591" y="447.155"/><text fill="#000000" font-family="sans-serif" font-size="12" lengthAdjust="spacing" textLength="100.043" x="148.0591" y="471.6101">process messages</text><polygon fill="#F1F1F1" points="198.0806,50,210.0806,62,198.0806,74,186.0806,62,198.0806,50" style="stroke:#181818;stroke-width:0.5;"/><polygon fill="#F1F1F1" points="171.8052,504.2468,224.356,504.2468,236.356,516.2468,224.356,528.2468,171.8052,528.2468,159.8052,516.2468,171.8052,504.2468" style="stroke:#181818;stroke-width:0.5;"/><text fill="#000000" font-family="sans-serif" font-size="11" lengthAdjust="spacing" textLength="12.2354" x="202.0806" y="541.4973">no</text><text fill="#000000" font-family="sans-serif" font-size="11" font-weight="bold" lengthAdjust="spacing" textLength="52.5508" x="171.8052" y="521.6636">continue?</text><text fill="#000000" font-family="sans-serif" font-size="11" lengthAdjust="spacing" textLength="17.1177" x="236.356" y="513.8298">yes</text><ellipse cx="198.0806" cy="573.9973" fill="none" rx="11" ry="11" style="stroke:#222222;stroke-width:1.0;"/><ellipse cx="198.0806" cy="573.9973" fill="#222222" rx="6" ry="6" style="stroke:#222222;stroke-width:1.0;"/><line style="stroke:#181818;stroke-width:1.0;" x1="198.0806" x2="198.0806" y1="131.0918" y2="151.0918"/><polygon fill="#181818" points="194.0806,141.0918,198.0806,151.0918,202.0806,141.0918,198.0806,145.0918" style="stroke:#181818;stroke-width:1.0;"/><line style="stroke:#181818;stroke-width:1.0;" x1="186.0806" x2="173.0806" y1="270.0173" y2="270.0173"/><polygon fill="#181818" points="169.0806,280.0173,173.0806,290.0173,177.0806,280.0173,173.0806,284.0173" style="stroke:#181818;stroke-width:1.0;"/><line style="stroke:#181818;stroke-width:1.0;" x1="173.0806" x2="173.0806" y1="270.0173" y2="310.0173"/><line style="stroke:#181818;stroke-width:1.0;" x1="173.0806" x2="186.0806" y1="310.0173" y2="310.0173"/><polygon fill="#181818" points="176.0806,306.0173,186.0806,310.0173,176.0806,314.0173,180.0806,310.0173" style="stroke:#181818;stroke-width:1.0;"/><line style="stroke:#181818;stroke-width:1.0;" x1="210.0806" x2="223.0806" y1="270.0173" y2="270.0173"/><polygon fill="#181818" points="219.0806,280.0173,223.0806,290.0173,227.0806,280.0173,223.0806,284.0173" style="stroke:#181818;stroke-width:1.0;"/><line style="stroke:#181818;stroke-width:1.0;" x1="223.0806" x2="223.0806" y1="270.0173" y2="310.0173"/><line style="stroke:#181818;stroke-width:1.0;" x1="223.0806" x2="210.0806" y1="310.0173" y2="310.0173"/><polygon fill="#181818" points="220.0806,306.0173,210.0806,310.0173,220.0806,314.0173,216.0806,310.0173" style="stroke:#181818;stroke-width:1.0;"/><line style="stroke:#181818;stroke-width:1.0;" x1="198.0806" x2="198.0806" y1="322.0173" y2="346.0632"/><polygon fill="#181818" points="194.0806,336.0632,198.0806,346.0632,202.0806,336.0632,198.0806,340.0632" style="stroke:#181818;stroke-width:1.0;"/><line style="stroke:#181818;stroke-width:1.0;" x1="198.0806" x2="198.0806" y1="232.1836" y2="258.0173"/><polygon fill="#181818" points="194.0806,248.0173,198.0806,258.0173,202.0806,248.0173,198.0806,252.0173" style="stroke:#181818;stroke-width:1.0;"/><line style="stroke:#181818;stroke-width:1.0;" x1="354.9954" x2="366.9954" y1="220.1836" y2="220.1836"/><polygon fill="#181818" points="362.9954,316.0632,366.9954,326.0632,370.9954,316.0632,366.9954,320.0632" style="stroke:#181818;stroke-width:1.0;"/><line style="stroke:#181818;stroke-width:1.0;" x1="366.9954" x2="366.9954" y1="220.1836" y2="415.155"/><line style="stroke:#181818;stroke-width:1.0;" x1="366.9954" x2="210.0806" y1="415.155" y2="415.155"/><polygon fill="#181818" points="220.0806,411.155,210.0806,415.155,220.0806,419.155,216.0806,415.155" style="stroke:#181818;stroke-width:1.0;"/><line style="stroke:#181818;stroke-width:1.0;" x1="198.0806" x2="198.0806" y1="383.155" y2="403.155"/><polygon fill="#181818" points="194.0806,393.155,198.0806,403.155,202.0806,393.155,198.0806,397.155" style="stroke:#181818;stroke-width:1.0;"/><line style="stroke:#181818;stroke-width:1.0;" x1="198.0806" x2="198.0806" y1="188.1836" y2="208.1836"/><polygon fill="#181818" points="194.0806,198.1836,198.0806,208.1836,202.0806,198.1836,198.0806,202.1836" style="stroke:#181818;stroke-width:1.0;"/><line style="stroke:#181818;stroke-width:1.0;" x1="198.0806" x2="198.0806" y1="427.155" y2="447.155"/><polygon fill="#181818" points="194.0806,437.155,198.0806,447.155,202.0806,437.155,198.0806,441.155" style="stroke:#181818;stroke-width:1.0;"/><line style="stroke:#181818;stroke-width:1.0;" x1="198.0806" x2="198.0806" y1="74" y2="94"/><polygon fill="#181818" points="194.0806,84,198.0806,94,202.0806,84,198.0806,88" style="stroke:#181818;stroke-width:1.0;"/><line style="stroke:#181818;stroke-width:1.0;" x1="236.356" x2="384.9954" y1="516.2468" y2="516.2468"/><polygon fill="#181818" points="380.9954,300.0173,384.9954,290.0173,388.9954,300.0173,384.9954,296.0173" style="stroke:#181818;stroke-width:1.0;"/><line style="stroke:#181818;stroke-width:1.0;" x1="384.9954" x2="384.9954" y1="62" y2="516.2468"/><line style="stroke:#181818;stroke-width:1.0;" x1="384.9954" x2="210.0806" y1="62" y2="62"/><polygon fill="#181818" points="220.0806,58,210.0806,62,220.0806,66,216.0806,62" style="stroke:#181818;stroke-width:1.0;"/><line style="stroke:#181818;stroke-width:1.0;" x1="198.0806" x2="198.0806" y1="484.2468" y2="504.2468"/><polygon fill="#181818" points="194.0806,494.2468,198.0806,504.2468,202.0806,494.2468,198.0806,498.2468" style="stroke:#181818;stroke-width:1.0;"/><line style="stroke:#181818;stroke-width:1.0;" x1="198.0806" x2="198.0806" y1="30" y2="50"/><polygon fill="#181818" points="194.0806,40,198.0806,50,202.0806,40,198.0806,44" style="stroke:#181818;stroke-width:1.0;"/><line style="stroke:#181818;stroke-width:1.0;" x1="198.0806" x2="198.0806" y1="528.2468" y2="562.9973"/><polygon fill="#181818" points="194.0806,552.9973,198.0806,562.9973,202.0806,552.9973,198.0806,556.9973" style="stroke:#181818;stroke-width:1.0;"/><!--SRC=[LP31QiCm38RlUGfT1kbjvwpP63qDEWRR2zHJr4RWoCQIM_hsi-C5jflu-VJ9lzLSigvB5CbP1p34x3qifEekf4yrOS54JWbE6BBOgOPyXbxdaFq4AGiSZgzlxu1XMPnCK1Ki5t3554ccEc_6bntOJ0BzdNHNH4srXGVlUFb0p2cH87qw8tY0zIoC8pos3VBbCVrcXFq8wzuNYRBnbUt-ovNJvtKQi0B_QZM9X8esS8WfO27-OErRRZFxmkw_dp68iMGgBLXR1v1WpQCMOlS3]--></g></svg>